<?xml version="1.0" encoding="UTF-8" standalone="no"?>
<!-- Generator: Adobe Illustrator 19.0.0, SVG Export Plug-In . SVG Version: 6.00 Build 0)  -->

<svg
   xmlns:dc="http://purl.org/dc/elements/1.1/"
   xmlns:cc="http://creativecommons.org/ns#"
   xmlns:rdf="http://www.w3.org/1999/02/22-rdf-syntax-ns#"
   xmlns:svg="http://www.w3.org/2000/svg"
   xmlns="http://www.w3.org/2000/svg"
   xmlns:sodipodi="http://sodipodi.sourceforge.net/DTD/sodipodi-0.dtd"
   xmlns:inkscape="http://www.inkscape.org/namespaces/inkscape"
   version="1.1"
   id="Layer_1"
   x="0px"
   y="0px"
   viewBox="0 0 291.32 291.32"
   style="enable-background:new 0 0 291.32 291.32;"
   xml:space="preserve"
   sodipodi:docname="google-plus.svg"
   inkscape:version="0.92.3 (2405546, 2018-03-11)"><metadata
   id="metadata47"><rdf:RDF><cc:Work
       rdf:about=""><dc:format>image/svg+xml</dc:format><dc:type
         rdf:resource="http://purl.org/dc/dcmitype/StillImage" /></cc:Work></rdf:RDF></metadata><defs
   id="defs45" /><sodipodi:namedview
   pagecolor="#ffffff"
   bordercolor="#666666"
   borderopacity="1"
   objecttolerance="10"
   gridtolerance="10"
   guidetolerance="10"
   inkscape:pageopacity="0"
   inkscape:pageshadow="2"
   inkscape:window-width="640"
   inkscape:window-height="480"
   id="namedview43"
   showgrid="false"
   inkscape:zoom="0.81010571"
   inkscape:cx="145.66"
   inkscape:cy="145.66"
   inkscape:window-x="0"
   inkscape:window-y="30"
   inkscape:window-maximized="0"
   inkscape:current-layer="g10" />
<g
   id="g10">
	<path
   style="fill:#ffffff"
   d="M145.66,0c80.113,0,145.66,65.547,145.66,145.66s-65.547,145.66-145.66,145.66S0,225.772,0,145.66   S65.547,0,145.66,0z"
   id="path2" />
	<g
   id="g8"
   style="fill:#000000">
		<polygon
   style="fill:#000000"
   points="219.4,121.079 219.4,137.466 235.786,137.466 235.786,153.853 219.4,153.853 219.4,170.24     203.013,170.24 203.013,153.853 186.626,153.853 186.626,137.466 203.013,137.466 203.013,121.079   "
   id="polygon4" />
		<path
   style="fill:#000000"
   d="M71.919,186.626c-21.849-21.849-21.849-60.085,0.91-81.933    c16.387-16.387,40.056-20.028,60.995-11.835l8.193,4.552l9.104,6.373l-14.566,14.566l-5.462-3.641    c-12.745-8.193-30.953-6.373-42.787,5.462c-13.656,13.656-14.566,38.236,0,52.802c13.656,14.566,38.236,14.566,50.981,0    c3.641-3.641,7.283-9.104,8.193-14.566v-1.821h-32.773v-18.207h51.891l0.91,4.552v12.745c-0.91,11.835-5.462,23.67-13.656,31.863    C132.004,208.475,93.768,208.475,71.919,186.626z"
   id="path6" />
	</g>
</g>
<g
   id="g12">
</g>
<g
   id="g14">
</g>
<g
   id="g16">
</g>
<g
   id="g18">
</g>
<g
   id="g20">
</g>
<g
   id="g22">
</g>
<g
   id="g24">
</g>
<g
   id="g26">
</g>
<g
   id="g28">
</g>
<g
   id="g30">
</g>
<g
   id="g32">
</g>
<g
   id="g34">
</g>
<g
   id="g36">
</g>
<g
   id="g38">
</g>
<g
   id="g40">
</g>
</svg>