<?xml version="1.0" encoding="UTF-8" standalone="no"?>
<svg
   xmlns:dc="http://purl.org/dc/elements/1.1/"
   xmlns:cc="http://creativecommons.org/ns#"
   xmlns:rdf="http://www.w3.org/1999/02/22-rdf-syntax-ns#"
   xmlns:svg="http://www.w3.org/2000/svg"
   xmlns="http://www.w3.org/2000/svg"
   xmlns:sodipodi="http://sodipodi.sourceforge.net/DTD/sodipodi-0.dtd"
   xmlns:inkscape="http://www.inkscape.org/namespaces/inkscape"
   height="512pt"
   viewBox="0 0 512 512"
   width="512pt"
   version="1.1"
   id="svg4"
   sodipodi:docname="twitter.svg"
   inkscape:version="0.92.3 (2405546, 2018-03-11)">
  <metadata
     id="metadata10">
    <rdf:RDF>
      <cc:Work
         rdf:about="">
        <dc:format>image/svg+xml</dc:format>
        <dc:type
           rdf:resource="http://purl.org/dc/dcmitype/StillImage" />
      </cc:Work>
    </rdf:RDF>
  </metadata>
  <defs
     id="defs8" />
  <sodipodi:namedview
     pagecolor="#ffffff"
     bordercolor="#666666"
     borderopacity="1"
     objecttolerance="10"
     gridtolerance="10"
     guidetolerance="10"
     inkscape:pageopacity="0"
     inkscape:pageshadow="2"
     inkscape:window-width="1198"
     inkscape:window-height="867"
     id="namedview6"
     showgrid="false"
     inkscape:zoom="0.34570313"
     inkscape:cx="341.33333"
     inkscape:cy="341.33333"
     inkscape:window-x="0"
     inkscape:window-y="30"
     inkscape:window-maximized="0"
     inkscape:current-layer="svg4" />
  <path
     d="m256 0c-141.363281 0-256 114.636719-256 256s114.636719 256 256 256 256-114.636719 256-256-114.636719-256-256-256zm116.886719 199.601562c.113281 2.519532.167969 5.050782.167969 7.59375 0 77.644532-59.101563 167.179688-167.183594 167.183594h.003906-.003906c-33.183594 0-64.0625-9.726562-90.066406-26.394531 4.597656.542969 9.277343.8125 14.015624.8125 27.53125 0 52.867188-9.390625 72.980469-25.152344-25.722656-.476562-47.410156-17.464843-54.894531-40.8125 3.582031.6875 7.265625 1.0625 11.042969 1.0625 5.363281 0 10.558593-.722656 15.496093-2.070312-26.886718-5.382813-47.140624-29.144531-47.140624-57.597657 0-.265624 0-.503906.007812-.75 7.917969 4.402344 16.972656 7.050782 26.613281 7.347657-15.777343-10.527344-26.148437-28.523438-26.148437-48.910157 0-10.765624 2.910156-20.851562 7.957031-29.535156 28.976563 35.554688 72.28125 58.9375 121.117187 61.394532-1.007812-4.304688-1.527343-8.789063-1.527343-13.398438 0-32.4375 26.316406-58.753906 58.765625-58.753906 16.902344 0 32.167968 7.144531 42.890625 18.566406 13.386719-2.640625 25.957031-7.53125 37.3125-14.261719-4.394531 13.714844-13.707031 25.222657-25.839844 32.5 11.886719-1.421875 23.214844-4.574219 33.742187-9.253906-7.863281 11.785156-17.835937 22.136719-29.308593 30.429687zm0 0"
     id="path2" />
  <path
     style="fill:#2b0000;stroke-width:2.89265537"
     d="M 223.60226,491.53585 C 212.46554,488.7878 193.61042,482.04974 181.702,476.56236 l -21.65167,-9.97705 26.13347,-1.84418 c 19.75487,-1.39405 31.39385,-4.04111 47.68557,-10.84515 22.37614,-9.34513 42.71832,-23.17344 34.3709,-23.36483 -22.18571,-0.50868 -53.07358,-20.28082 -63.44678,-40.61396 l -5.59227,-10.96176 16.19382,-0.19343 c 19.12388,-0.22844 22.23418,-2.00804 10.77789,-6.16675 -29.80755,-10.82035 -48.63437,-32.56291 -54.1234,-62.50558 l -1.6444,-8.97022 15.75587,4.38542 c 8.66573,2.41198 16.56802,3.57326 17.56066,2.58063 0.99263,-0.99264 -2.16254,-5.14308 -7.01149,-9.22321 -14.10173,-11.86582 -23.72938,-34.24075 -23.72938,-55.14775 0,-16.3294 4.27536,-36.02188 7.82058,-36.02188 0.80813,0 11.31894,9.19845 23.35736,20.44101 26.50707,24.75468 67.76606,46.15688 102.48542,53.16207 36.52165,7.36884 35.91176,7.59918 35.95824,-13.58049 0.066,-30.07942 15.4615,-55.09026 42.83553,-69.58874 23.41211,-12.40008 68.01407,-6.55491 82.41825,10.80105 5.30114,6.38749 16.1724,5.56871 36.33366,-2.7365 9.54576,-3.93227 17.72715,-7.15561 18.18086,-7.16298 2.95135,-0.0479 -7.94745,15.18884 -19.12965,26.74367 -14.71167,15.20192 -14.48463,15.46923 8.04592,9.47334 8.67629,-2.30896 16.48646,-3.47247 17.35593,-2.58557 0.86945,0.88689 -5.7156,8.41736 -14.63348,16.73437 l -16.21434,15.12183 -2.10878,24.17474 c -8.77851,100.63503 -74.48761,180.27365 -167.05155,202.46443 -30.44793,7.29941 -76.32048,7.4658 -105.03248,0.38096 z"
     id="path3715"
     inkscape:connector-curvature="0"
     transform="scale(0.74999998)" />
  <path
     style="fill:#ffffff;stroke-width:2.89265537"
     d="M 300.97174,678.89704 C 189.18645,665.89398 88.265479,594.39058 37.076191,491.92471 13.192769,444.11713 2.3141243,396.72268 2.3141243,340.47847 2.3141243,153.51627 153.51627,2.3141243 340.47847,2.3141243 c 90.57473,0 173.73377,33.3947837 236.95374,95.1552487 C 683.77635,201.35843 711.03581,357.02428 646.12239,489.72655 582.28915,620.22063 444.72233,695.61839 300.97174,678.89704 Z m 21.80547,-183.64737 c 97.33114,-20.1043 165.3038,-100.05813 175.60897,-206.56266 l 2.09914,-21.69492 18.86,-19.63257 c 10.37298,-10.79791 18.0944,-20.39814 17.15868,-21.33385 -0.93569,-0.93571 -6.98839,0.4142 -13.45044,2.9998 -6.46205,2.5856 -13.90228,4.70108 -16.53384,4.70108 -4.09525,0 -3.92215,-0.93783 1.20115,-6.50847 7.71184,-8.3852 18.13914,-25.75524 18.15306,-30.23981 0.006,-2.25733 -5.33256,-0.99436 -15.17562,3.58951 -21.02996,9.79353 -33.03806,11.74321 -39.16653,6.35921 -9.74353,-8.55994 -30.53305,-17.11138 -45.30647,-18.63613 -45.61209,-4.70758 -85.80687,31.26432 -86.23935,77.17901 -0.19236,20.43394 -0.34807,20.49099 -34.81831,12.76606 -39.35282,-8.81913 -75.81927,-28.96474 -107.96301,-59.64333 l -17.71966,-16.91197 -4.69842,11.74252 c -10.61795,26.53686 -3.54347,62.69675 16.28126,83.21866 9.93963,10.28917 7.54758,11.72919 -8.40891,5.06214 -14.53179,-6.07177 -15.30483,-5.69803 -13.46246,6.50848 4.13744,27.41242 26.90724,58.45006 46.48482,63.36373 10.76849,2.7027 1.41523,7.08539 -10.47402,4.90782 -9.18657,-1.68254 -9.59833,-1.40565 -7.5424,5.07202 6.46125,20.35761 27.78392,40.39792 49.94499,46.94131 6.28884,1.85688 11.78609,4.67783 12.2161,6.26879 1.102,4.07726 -33.21032,20.87945 -49.98538,24.47707 -7.70181,1.65174 -24.02735,3.03211 -36.27898,3.06749 l -22.2757,0.0643 7.23163,5.59449 c 10.9706,8.48693 45.67651,22.28964 68.1668,27.11025 26.79654,5.7436 68.75005,5.8178 96.0929,0.17009 z"
     id="path3717"
     inkscape:connector-curvature="0"
     transform="scale(0.74999998)" />
</svg>
